<svg width="337" height="248" viewBox="0 0 337 248" fill="none" xmlns="http://www.w3.org/2000/svg">
<path d="M316.639 150.091C315.249 148.976 314.24 147.413 313.742 145.633C306.297 118.389 282.352 99.3486 255.511 99.3486C250.567 99.3486 245.637 99.9833 240.869 101.237C237.578 102.104 234.126 100.711 232.195 97.7542C219.674 78.4975 199.035 67.0115 176.977 67.0115C160.214 67.0115 144.167 73.6059 131.807 85.5562C119.52 97.4446 111.885 113.605 110.305 131.051C110.027 134.07 108.286 136.717 105.697 138.017C104.893 138.419 104.074 138.868 103.284 139.333C102.611 139.735 101.88 140.029 101.119 140.199C89.8121 142.862 79.5436 149.596 72.2007 159.131C64.653 168.93 60.6743 180.803 60.6743 193.434C60.6743 223.527 83.9319 248 112.528 248H285.146C313.742 248 337 223.527 337 193.434C337 176.314 329.584 160.509 316.639 150.091Z" fill="#44C2E4"/>
<path d="M60.9815 107.414C60.9815 118.187 64.7407 128.342 71.4401 136.175C78.3881 130.649 86.3015 126.515 94.7122 124.116C97.6377 104.441 106.78 86.3921 120.807 72.8319C121.466 72.1972 122.139 71.5781 122.811 70.9589C116.463 66.7948 109.149 64.5503 101.485 64.5503C79.1633 64.5348 60.9815 83.776 60.9815 107.414Z" fill="#E6C705"/>
<path d="M101.499 41.501C106.005 41.501 109.647 37.6466 109.647 32.8788V8.62218C109.647 3.85444 106.005 0 101.499 0C96.9941 0 93.3519 3.85444 93.3519 8.62218V32.8788C93.3519 37.6466 97.0087 41.501 101.499 41.501Z" fill="#E6C705"/>
<path d="M59.2262 47.1821C60.7328 49.9529 63.4682 51.5009 66.2912 51.5009C67.6662 51.5009 69.0704 51.1294 70.3577 50.3399C74.2485 47.9561 75.5943 42.693 73.3416 38.5599L61.8738 17.554C59.6212 13.4364 54.6479 12.0122 50.7423 14.3961C46.8515 16.78 45.5058 22.0431 47.7584 26.1761L59.2262 47.1821Z" fill="#E6C705"/>
<path d="M16.5874 65.4791L36.4368 77.6151C37.724 78.4046 39.1136 78.7761 40.5032 78.7761C43.3116 78.7761 46.0616 77.2281 47.5682 74.4573C49.8208 70.3397 48.4897 65.0611 44.5842 62.6772L24.7349 50.5412C20.844 48.1573 15.8561 49.5659 13.6035 53.699C11.3508 57.8321 12.6819 63.1107 16.5874 65.4791Z" fill="#E6C705"/>
<path d="M8.14745 116.036H31.0685C35.5738 116.036 39.216 112.181 39.216 107.414C39.216 102.646 35.5738 98.7913 31.0685 98.7913H8.14745C3.64222 98.7913 0 102.661 0 107.414C0 112.181 3.64222 116.036 8.14745 116.036Z" fill="#E6C705"/>
<path d="M47.5682 140.37C45.3156 136.252 40.3423 134.828 36.4368 137.212L16.5874 149.348C12.6966 151.732 11.3508 156.995 13.6035 161.128C15.1101 163.899 17.8454 165.447 20.6685 165.447C22.0434 165.447 23.4477 165.075 24.7349 164.286L44.5842 152.15C48.4751 149.766 49.8062 144.503 47.5682 140.37Z" fill="#E6C705"/>
<path d="M132.641 50.3399C133.928 51.1294 135.318 51.5009 136.707 51.5009C139.516 51.5009 142.266 49.9529 143.772 47.1821L155.24 26.1761C157.493 22.0585 156.162 16.78 152.256 14.3961C148.365 12.0122 143.377 13.4209 141.125 17.554L129.657 38.5599C127.404 42.6775 128.75 47.9561 132.641 50.3399Z" fill="#E6C705"/>
</svg>
