<svg width="81" height="70" viewBox="0 0 81 70" fill="none" xmlns="http://www.w3.org/2000/svg">
<path d="M14.6573 22.2302C14.6573 24.46 15.5608 26.5616 17.1711 28.1826C18.8411 27.0389 20.7431 26.1835 22.7647 25.687C23.4678 21.6151 25.6652 17.8796 29.0368 15.0732C29.195 14.9419 29.3567 14.8137 29.5185 14.6856C27.9961 13.8238 26.2347 13.3593 24.3925 13.3593C19.0274 13.3561 14.6573 17.3382 14.6573 22.2302Z" fill="#E6C705"/>
<path d="M76.106 31.0627C75.772 30.832 75.5295 30.5053 75.4099 30.14C73.6204 24.5016 67.8651 20.5611 61.4136 20.5611C60.2253 20.5611 59.0405 20.6924 57.8943 20.9519C57.1033 21.1314 56.2735 20.843 55.8095 20.2311C52.7999 16.2458 47.8392 13.8687 42.5374 13.8687C38.5083 13.8687 34.6515 15.2334 31.6807 17.7066C28.7274 20.167 26.8922 23.5117 26.5125 27.1254C26.4457 27.7501 26.0273 28.2979 25.405 28.567C25.2116 28.6503 25.0148 28.7432 24.8249 28.8394C24.6632 28.9227 24.4874 28.9835 24.3046 29.0188C21.5869 29.5698 19.1188 30.9634 17.3539 32.9368C15.5397 34.9648 14.5834 37.422 14.5834 40.0362C14.5834 46.2641 20.1735 51.3291 27.0469 51.3291H68.5366C75.4099 51.3291 81 46.2641 81 40.0362C81 36.4897 79.2175 33.2188 76.106 31.0627Z" fill="#44C2E4"/>
<path d="M32.5737 70C32.7635 70 32.9569 69.9744 33.1468 69.9199C34.1804 69.6316 34.7605 68.632 34.4441 67.6902L32.085 60.6806C31.7686 59.7387 30.6716 59.2101 29.638 59.4984C28.6044 59.7867 28.0243 60.7863 28.3407 61.7281L30.6998 68.7378C30.9599 69.5034 31.7369 70 32.5737 70Z" fill="#44C2E4"/>
<path d="M48.9713 70C49.1611 70 49.3545 69.9744 49.5443 69.9199C50.578 69.6316 51.1581 68.632 50.8417 67.6902L48.4826 60.6806C48.1662 59.7387 47.0692 59.2101 46.0356 59.4984C45.002 59.7867 44.4218 60.7863 44.7383 61.7281L47.0974 68.7378C47.3575 69.5034 48.1345 70 48.9713 70Z" fill="#44C2E4"/>
<path d="M65.3689 70C65.5587 70 65.7521 69.9744 65.9419 69.9199C66.9756 69.6316 67.5557 68.632 67.2392 67.6902L64.8802 60.6806C64.5637 59.7387 63.4668 59.2101 62.4332 59.4984C61.3995 59.7867 60.8194 60.7863 61.1359 61.7281L63.4949 68.7378C63.7551 69.5034 64.5321 70 65.3689 70Z" fill="#44C2E4"/>
<path d="M22.4377 1.78444V6.80458C22.4377 7.7913 23.3131 8.58902 24.396 8.58902C25.4788 8.58902 26.3543 7.7913 26.3543 6.80458V1.78444C26.3543 0.797712 25.4788 0 24.396 0C23.3166 0 22.4377 0.797712 22.4377 1.78444Z" fill="#E6C705"/>
<path d="M15.9335 10.6554C16.264 10.6554 16.6015 10.5785 16.9109 10.4151C17.8461 9.92174 18.1695 8.8325 17.6281 7.97712L14.8717 3.63295C14.3303 2.78078 13.1349 2.48604 12.1962 2.97941C11.261 3.47277 10.9376 4.56201 11.479 5.41739L14.2354 9.76476C14.5975 10.335 15.2585 10.6554 15.9335 10.6554Z" fill="#E6C705"/>
<path d="M10.7161 12.9716L5.94518 10.46C5.00998 9.96659 3.8111 10.2581 3.26967 11.1135C2.72824 11.9657 3.04818 13.0581 3.98689 13.5515L8.7578 16.0632C9.06719 16.2265 9.40119 16.3034 9.73519 16.3034C10.4102 16.3034 11.0712 15.9831 11.4333 15.4096C11.9712 14.5574 11.6513 13.465 10.7161 12.9716Z" fill="#E6C705"/>
<path d="M9.4258 22.2302C9.4258 21.2435 8.55037 20.4458 7.46751 20.4458H1.95829C0.875429 20.4458 0 21.2467 0 22.2302C0 23.2169 0.875429 24.0146 1.95829 24.0146H7.46751C8.55037 24.0146 9.4258 23.2169 9.4258 22.2302Z" fill="#E6C705"/>
<path d="M10.7161 31.4888C11.6513 30.9954 11.9747 29.9062 11.4333 29.0508C10.8919 28.1986 9.69651 27.9039 8.7578 28.3973L3.98689 30.9089C3.05169 31.4023 2.72824 32.4915 3.26967 33.3469C3.6318 33.9204 4.28925 34.2407 4.96779 34.2407C5.29828 34.2407 5.63579 34.1638 5.94518 34.0005L10.7161 31.4888Z" fill="#E6C705"/>
<path d="M31.8811 10.4183C32.1905 10.5817 32.5245 10.6586 32.8585 10.6586C33.5335 10.6586 34.1945 10.3382 34.5566 9.76476L37.3129 5.41739C37.8544 4.56522 37.5344 3.47277 36.5957 2.97941C35.6605 2.48604 34.4617 2.77757 33.9202 3.63295L31.1639 7.98032C30.6224 8.83249 30.9459 9.92494 31.8811 10.4183Z" fill="#E6C705"/>
</svg>
