<svg width="78" height="69" viewBox="0 0 78 69" fill="none" xmlns="http://www.w3.org/2000/svg">
<path d="M42.6526 51.361C53.1786 49.5766 60.0764 40.5817 58.0593 31.2702C56.0422 21.9588 45.874 15.8568 35.348 17.6412C24.822 19.4256 17.9242 28.4205 19.9413 37.732C21.9584 47.0434 32.1266 53.1453 42.6526 51.361Z" fill="#E6C705"/>
<path d="M36.9366 9.56429C36.9366 10.5745 37.8599 11.3912 39.0019 11.3912C40.1438 11.3912 41.0671 10.5745 41.0671 9.56429V1.82692C41.0671 0.816704 40.1438 0 39.0019 0C37.8599 0 36.9366 0.816704 36.9366 1.82692V9.56429Z" fill="#E6C705"/>
<path d="M36.9366 59.4357V67.1731C36.9366 68.1833 37.8599 69 39.0019 69C40.1438 69 41.0671 68.1833 41.0671 67.1731V59.4357C41.0671 58.4255 40.1438 57.6088 39.0019 57.6088C37.8599 57.6088 36.9366 58.4255 36.9366 59.4357Z" fill="#E6C705"/>
<path d="M24.9087 14.7335C25.2572 14.7335 25.6132 14.6548 25.9394 14.4875C26.9257 13.9824 27.2668 12.8672 26.6958 11.9914L22.3207 5.29054C21.7497 4.41807 20.4853 4.11632 19.4991 4.62143C18.5128 5.12654 18.1717 6.24172 18.7427 7.11746L23.1178 13.8184C23.4997 14.4055 24.1931 14.7335 24.9087 14.7335Z" fill="#E6C705"/>
<path d="M52.0606 54.5125C51.0743 55.0176 50.7332 56.1328 51.3042 57.0086L55.6793 63.7095C56.0612 64.2966 56.7546 64.6246 57.4702 64.6246C57.8187 64.6246 58.1746 64.5458 58.5009 64.3786C59.4872 63.8735 59.8283 62.7583 59.2573 61.8825L54.8822 55.1816C54.3112 54.3092 53.0505 54.0074 52.0606 54.5125Z" fill="#E6C705"/>
<path d="M5.22422 17.2492C4.65323 18.1216 4.99434 19.2401 5.98061 19.7452L13.5555 23.6155C13.8818 23.7828 14.2341 23.8615 14.5863 23.8615C15.2982 23.8615 15.9952 23.5335 16.3771 22.9464C16.9481 22.074 16.607 20.9555 15.6208 20.4504L8.04582 16.5801C7.05956 16.0782 5.79522 16.3767 5.22422 17.2492Z" fill="#E6C705"/>
<path d="M72.0194 49.2548L64.4445 45.3845C63.4582 44.8794 62.1938 45.1778 61.6229 46.0536C61.0519 46.926 61.393 48.0445 62.3792 48.5496L69.9542 52.4199C70.2805 52.5872 70.6327 52.6659 70.9849 52.6659C71.6968 52.6659 72.3939 52.3379 72.7758 51.7508C73.3468 50.8784 73.0094 49.7599 72.0194 49.2548Z" fill="#E6C705"/>
<path d="M12.877 34.5016C12.877 33.4914 11.9538 32.6747 10.8118 32.6747H2.06522C0.923231 32.6747 0 33.4914 0 34.5016C0 35.5119 0.923231 36.3286 2.06522 36.3286H10.8118C11.9538 36.3286 12.877 35.5086 12.877 34.5016Z" fill="#E6C705"/>
<path d="M75.9348 32.6747H67.1882C66.0462 32.6747 65.123 33.4914 65.123 34.5016C65.123 35.5119 66.0462 36.3286 67.1882 36.3286H75.9348C77.0768 36.3286 78 35.5119 78 34.5016C78 33.4914 77.0768 32.6747 75.9348 32.6747Z" fill="#E6C705"/>
<path d="M13.5555 45.3877L5.98061 49.2581C4.99434 49.7632 4.65323 50.8784 5.22422 51.7541C5.60612 52.3412 6.29947 52.6692 7.01507 52.6692C7.3636 52.6692 7.71954 52.5905 8.04582 52.4232L15.6208 48.5529C16.607 48.0478 16.9481 46.9326 16.3771 46.0569C15.8062 45.1811 14.5455 44.8826 13.5555 45.3877Z" fill="#E6C705"/>
<path d="M69.9542 16.5801L62.3792 20.4504C61.393 20.9555 61.0519 22.0707 61.6229 22.9464C62.0048 23.5335 62.6981 23.8615 63.4137 23.8615C63.7659 23.8615 64.1182 23.7828 64.4445 23.6155L72.0194 19.7452C73.0057 19.2401 73.3468 18.1249 72.7758 17.2492C72.2048 16.3767 70.9441 16.0782 69.9542 16.5801Z" fill="#E6C705"/>
<path d="M23.1178 55.1816L18.7427 61.8825C18.1717 62.755 18.5128 63.8735 19.4991 64.3786C19.8254 64.5458 20.1776 64.6246 20.5298 64.6246C21.2417 64.6246 21.9388 64.2966 22.3207 63.7095L26.6958 57.0086C27.2668 56.1361 26.9294 55.0176 25.9394 54.5125C24.9532 54.0074 23.6888 54.3092 23.1178 55.1816Z" fill="#E6C705"/>
<path d="M52.0606 14.4875C52.3868 14.6548 52.7391 14.7335 53.0913 14.7335C53.8032 14.7335 54.5003 14.4055 54.8822 13.8184L59.2573 7.11746C59.8283 6.245 59.4909 5.12654 58.5009 4.62143C57.5147 4.11632 56.2503 4.41479 55.6793 5.29054L51.3042 11.9914C50.7369 12.8672 51.0743 13.9824 52.0606 14.4875Z" fill="#E6C705"/>
</svg>
