<svg width="80" height="69" viewBox="0 0 80 69" fill="none" xmlns="http://www.w3.org/2000/svg">
<path d="M23.9818 42.3608L34.4757 13.0545H47.7349L39.9979 32.8451H56.0182L46.2569 46.968H64.9876C73.2666 46.968 80 40.6175 80 32.8089C80 28.3664 77.8529 24.2653 74.1051 21.562C73.7028 21.2728 73.4106 20.8631 73.2666 20.4052C71.1111 13.3357 64.1787 8.39504 56.4078 8.39504C54.9764 8.39504 53.5493 8.55973 52.1688 8.88509C51.2159 9.11002 50.2165 8.74852 49.6575 7.98131C46.0325 2.98446 40.0572 0 33.6711 0C28.818 0 24.1724 1.71114 20.5939 4.81209C17.0367 7.89696 14.8261 12.0905 14.3687 16.6214C14.2883 17.4046 13.7843 18.0915 13.0348 18.4289C12.8019 18.5334 12.5689 18.6458 12.336 18.7703C12.1412 18.8748 11.9295 18.9511 11.7093 18.9953C8.43576 19.6862 5.46292 21.4335 3.33704 23.9078C1.15611 26.4504 0 29.5272 0 32.8089C0 40.6175 6.73337 46.968 15.0124 46.968H36.8472L38.0668 42.3608H23.9818Z" fill="#44C2E4"/>
<path d="M39.9979 32.8451L47.7307 13.0545H34.4757L23.9818 42.3608H38.0668L36.8472 46.968L31.0243 69L46.2569 46.968L56.0182 32.8451H39.9979Z" fill="#E6C705"/>
</svg>
